<?xml version="1.0" encoding="utf-8"?>
<!-- Generator: Adobe Illustrator 22.1.0, SVG Export Plug-In . SVG Version: 6.00 Build 0)  -->
<svg version="1.1" id="Layer_1" xmlns="http://www.w3.org/2000/svg" xmlns:xlink="http://www.w3.org/1999/xlink" x="0px" y="0px"
	 viewBox="0 0 24 24" style="enable-background:new 0 0 24 24;" xml:space="preserve">
<style type="text/css">
	.st0{fill:#F7931E;stroke:#A3703C;stroke-width:0.5;stroke-miterlimit:10;}
	.st1{fill:#C1272D;}
	.st2{fill:#E33217;}
	.st3{fill:none;stroke:#FFFFFF;stroke-width:0.25;stroke-miterlimit:10;}
	.st4{display:none;fill:none;stroke:#4D4D4D;stroke-width:0.25;stroke-miterlimit:10;}
	.st5{fill:#FFFFFF;}
	.st6{font-family:'Penna';}
	.st7{font-size:8.9625px;}
</style>
<path class="st0" d="M1,11C1,5.5,5.9,1,12,1s11,4.5,11,10"/>
<circle class="st1" cx="8.5" cy="6.5" r="1"/>
<circle class="st1" cx="10.5" cy="3.5" r="1"/>
<circle class="st1" cx="13.5" cy="6.5" r="1"/>
<circle class="st1" cx="16.5" cy="9.5" r="1"/>
<circle class="st1" cx="16.5" cy="5.5" r="1"/>
<circle class="st1" cx="5.5" cy="9.5" r="1"/>
<circle class="st1" cx="4.5" cy="6.5" r="1"/>
<circle class="st1" cx="11.5" cy="9.5" r="1"/>
<circle class="st1" cx="20.5" cy="8.5" r="1"/>
<ellipse class="st2" cx="5.1" cy="9.1" rx="0.2" ry="0.2"/>
<ellipse class="st2" cx="14.1" cy="7.1" rx="0.2" ry="0.2"/>
<ellipse class="st2" cx="11.1" cy="10.1" rx="0.2" ry="0.2"/>
<ellipse class="st2" cx="17" cy="10.1" rx="0.2" ry="0.2"/>
<circle class="st2" cx="5.1" cy="10.1" r="0.1"/>
<circle class="st2" cx="4.1" cy="7.1" r="0.1"/>
<circle class="st2" cx="5.1" cy="6.1" r="0.1"/>
<circle class="st2" cx="8.1" cy="6.1" r="0.1"/>
<circle class="st2" cx="20" cy="8.1" r="0.1"/>
<circle class="st2" cx="21" cy="9.1" r="0.1"/>
<circle class="st2" cx="10.1" cy="4.1" r="0.1"/>
<circle class="st2" cx="11.1" cy="4.1" r="0.1"/>
<circle class="st2" cx="13.1" cy="6.1" r="0.1"/>
<circle class="st2" cx="9.1" cy="7.1" r="0.1"/>
<circle class="st2" cx="10.1" cy="3" r="0.1"/>
<circle class="st2" cx="17" cy="6.1" r="0.1"/>
<circle class="st2" cx="16" cy="5.1" r="0.1"/>
<circle class="st2" cx="16" cy="9.1" r="0.1"/>
<circle class="st2" cx="11.1" cy="9.1" r="0.1"/>
<path class="st3" d="M12,11c0-3.7,0-6.7,0-10.3"/>
<path class="st3" d="M12.6,11.2c2.8-3.4,3.7-4.8,6.5-8.2"/>
<path class="st3" d="M5.4,2.7c2.5,3.4,3.5,5.1,6,8.5"/>
<path class="st4" d="M2,11c0-1,0.9-2.7,1-4c0-0.7-0.1-0.7,0-1c0.4-1.4,2.8-1,5-3c0.6-0.6,0.5-0.7,1-1c1.3-0.8,3.5-1,5,0
	c0.6,0.4,1,0.9,2,1c0.5,0.1,0.5,0,1,0c1.2,0.1,2.4,1,3,2c0.5,0.8,0.3,1.2,1,2c0.5,0.6,0.7,0.6,1,1c0.3,0.5,0,1,0,3"/>
<text transform="matrix(1.1056 0 0 1 -9.765625e-04 18.2432)" class="st5 st6 st7">SLICES</text>
</svg>
